# xmcd CD database file
#
# Track frame offsets:
#	150
#	12182
#	28920
#	41768
#	56350
#	69320
#	83215
#	96205
#	111523
#	125333
#	138060
#	153665
#
# Disc length: 2226 seconds
#
# Revision: 0
# Processed by: cddbd v1.5.2PL0 Copyright (c) Steve Scherf et al.
# Submitted via: jetAudio 7
#
DISCID=9c08b00c
DTITLE=unbekannter Künstler - unbekanntes Album
DYEAR=1900
DGENRE=unbekanntes Genre
TTITLE0=Titel 1
TTITLE1=Titel 2
TTITLE2=Titel 3
TTITLE3=Titel 4
TTITLE4=Titel 5
TTITLE5=Titel 6
TTITLE6=Titel 7
TTITLE7=Titel 8
TTITLE8=Titel 9
TTITLE9=Titel 10
TTITLE10=Titel 11
TTITLE11=Titel 12
EXTD=
EXTT0=
EXTT1=
EXTT2=
EXTT3=
EXTT4=
EXTT5=
EXTT6=
EXTT7=
EXTT8=
EXTT9=
EXTT10=
EXTT11=
PLAYORDER=
